Coordinates
version=1
nRows=19
nColumns=34
inDegrees=yes

Units are S.I. units (second, meters, Newtons, ...)
If the header above contains a line with 'inDegrees', this indicates whether rotational values are in degrees (yes) or radians (no).

endheader
time	pelvis_tilt	pelvis_list	pelvis_rotation	pelvis_tx	pelvis_ty	pelvis_tz	hip_flexion_r	hip_adduction_r	hip_rotation_r	knee_angle_r	ankle_angle_r	subtalar_angle_r	mtp_angle_r	hip_flexion_l	hip_adduction_l	hip_rotation_l	knee_angle_l	ankle_angle_l	subtalar_angle_l	mtp_angle_l	lumbar_extension	lumbar_bending	lumbar_rotation	arm_flex_r	arm_add_r	arm_rot_r	elbow_flex_r	pro_sup_r	arm_flex_l	arm_add_l	arm_rot_l	elbow_flex_l	pro_sup_l
      2.50000000	     -2.79301835	     -0.59128546	      2.97663758	      0.84125157	      1.14533987	     -0.16693538	     -1.45392522	     -3.66268886	     -8.40162067	      2.09076791	      4.46445533	    -10.39593072	      0.00000000	      2.45372417	     -3.18060594	      0.31842273	      5.98066557	      7.76944007	     -7.45794515	      0.00000000	      0.30316605	      0.10304833	      0.29431376	     -7.94714532	     -8.19164851	     -4.94447265	     28.77820676	     91.29575116	     -7.55311742	     -9.70990038	     -4.23912044	     34.28423959	     92.53687767
      2.51666670	     -2.48733110	     -0.54390862	      2.78446194	      0.84163804	      1.14598396	     -0.16660128	     -2.14228246	     -3.64940889	     -8.64861485	      1.59800770	      4.61872437	     -9.86414488	      0.00000000	      1.77357410	     -3.14018657	      0.01084037	      5.73849831	      7.92627883	     -7.34348788	      0.00000000	      0.58859522	      0.10918020	      0.68807175	     -7.86294136	     -7.79860705	     -6.05582081	     27.69095345	     91.26644812	     -7.12622742	     -9.70029231	     -3.37105300	     32.99252213	     93.22286914
      2.53333330	     -2.39884373	     -0.59732711	      2.65844424	      0.84943089	      1.14686662	     -0.17056837	     -2.51345929	     -3.56901176	     -8.73815952	      1.33524396	      4.57987364	     -9.82413714	      0.00000000	      1.27925237	     -3.13013668	     -0.17522633	      5.54426580	      7.90819706	     -7.38390220	      0.00000000	      1.12181698	      0.22583514	      0.71632690	     -8.17262843	     -7.78258243	     -6.15786699	     27.62299443	     91.26814631	     -7.53361628	     -9.57426227	     -3.27982985	     32.82423964	     93.27906374
      2.55000000	     -2.32334600	     -0.64645442	      2.58549446	      0.84998699	      1.14728978	     -0.17026604	     -2.79507929	     -3.48856003	     -8.62560785	      1.08992596	      4.71513580	     -9.70824520	      0.00000000	      0.85155983	     -3.12332189	     -0.23850306	      5.32880680	      8.01212817	     -7.42205541	      0.00000000	      1.53890157	      0.31385160	      0.77984811	     -8.28679286	     -7.70057554	     -6.27620265	     27.60480180	     91.26932185	     -7.81340253	     -9.46358584	     -3.18777283	     32.60305486	     93.33332719
      2.56666670	     -2.19545267	     -0.68364309	      2.32499783	      0.84982395	      1.14733044	     -0.17011754	     -3.06447219	     -3.45743613	     -8.48748920	      0.91340427	      4.84058674	     -9.46840465	      0.00000000	      0.37195495	     -3.11071534	     -0.41548666	      5.03649519	      8.00117728	     -7.42757117	      0.00000000	      1.88117745	      0.44905203	      0.76120898	     -8.29863074	     -7.70432275	     -6.49520763	     27.59843899	     91.26571794	     -8.04395433	     -9.28411510	     -3.05657210	     32.22615687	     93.40454839
      2.58333330	     -1.95374864	     -0.70549921	      2.06340304	      0.84999224	      1.14809842	     -0.16979788	     -3.37749697	     -3.46113520	     -8.71282609	      0.85085764	      5.06843364	     -8.67161827	      0.00000000	     -0.14400946	     -3.09701815	     -0.83884862	      4.72195514	      7.85409174	     -7.13391990	      0.00000000	      1.96980492	      0.63910183	      1.65931662	     -8.71352366	     -7.21966789	     -9.75897426	     28.18954801	     91.67185243	     -6.99926888	     -9.26121833	     -1.41296541	     30.32845442	     94.52539300
      2.60000000	     -1.84738092	     -0.68778355	      1.88394312	      0.85856114	      1.14594204	     -0.16570378	     -3.74963890	     -3.39464492	     -8.55965048	      0.60648017	      5.20001907	     -8.63658439	      0.00000000	     -0.54965713	     -3.10849272	     -0.99002182	      4.57578263	      7.90635486	     -7.22668586	      0.00000000	      2.41574370	      0.56486592	      1.60303405	     -8.73923346	     -6.93940528	     -9.75339711	     28.29498820	     91.70667095	     -7.32286222	     -9.25457795	     -1.37413919	     30.17301265	     94.54512017
      2.61666670	     -1.83021887	     -0.63284787	      1.50437249	      0.85930977	      1.14633168	     -0.16528843	     -3.94640575	     -3.43130904	     -8.36461606	      0.45924801	      5.22397943	     -8.44982464	      0.00000000	     -0.95523417	     -3.06870453	     -1.30365351	      4.15254473	      7.81316466	     -7.23781697	      0.00000000	      2.89960156	      0.46509341	      1.64331488	     -8.32108909	     -6.86223342	     -9.76420369	     28.71114744	     91.76034364	     -7.53316612	     -9.16699543	     -1.29947773	     30.01521446	     94.56934880
      2.63333330	     -1.83357669	     -0.61364416	      1.22958835	      0.85874643	      1.14913668	     -0.16519663	     -4.03825922	     -3.42443633	     -8.34233353	      0.37532138	      5.20895809	     -8.35248569	      0.00000000	     -1.21753157	     -3.08320471	     -1.57399520	      3.85479527	      7.63445075	     -7.17884389	      0.00000000	      3.24561582	      0.44322831	      1.65235149	     -7.95598457	     -6.64755414	     -9.72603043	     29.12831819	     91.81066314	     -7.51722234	     -9.06860402	     -1.23319197	     29.89673818	     94.58203493
      2.65000000	     -1.79950396	     -0.62734839	      1.16774676	      0.85903046	      1.14661888	     -0.16498705	     -4.13162318	     -3.37937089	     -8.34802948	      0.39928162	      5.22272359	     -8.34800073	      0.00000000	     -1.34397666	     -3.11375105	     -1.61744965	      3.79953486	      7.64668384	     -7.17984985	      0.00000000	      3.55761218	      0.37504271	      1.69088315	     -7.64145629	     -6.59088447	     -9.71298260	     29.32287190	     91.81960047	     -7.36335333	     -8.98661932	     -1.20719643	     29.94001548	     94.58467692
      2.66666670	     -1.82450666	     -0.62401881	      1.04887965	      0.85071240	      1.14576216	     -0.16856589	     -4.04049249	     -3.41363110	     -8.38267294	      0.31226346	      5.25278315	     -8.34980133	      0.00000000	     -1.38664801	     -3.04408294	     -1.70653385	      3.47534395	      7.68647384	     -7.19656267	      0.00000000	      3.84713184	      0.39656316	      1.65505808	     -7.12618064	     -6.49274937	     -9.68568539	     29.62211789	     91.82935038	     -6.95231658	     -8.78977321	     -1.15160417	     30.06683696	     94.59048457
      2.68333330	     -1.93760013	     -0.46319231	      0.61822654	      0.85114660	      1.14630956	     -0.16810562	     -3.58654855	     -3.70030584	     -8.18350434	      0.59540360	      5.37141280	     -8.05452825	      0.00000000	     -1.36173413	     -2.79824205	     -2.44135601	      3.10598664	      7.45154075	     -6.87234770	      0.00000000	      3.58961383	      0.42750751	      1.66342190	     -7.18637146	     -6.65559302	     -9.43217226	     32.39859623	     92.12539391	     -6.23374504	     -8.53027133	     -0.17119476	     29.49881036	     94.66412701
      2.70000000	     -2.04333850	     -0.37845170	      0.47449448	      0.85092630	      1.14923158	     -0.16813821	     -3.36527865	     -3.83416635	     -8.12602753	      0.49893990	      5.26284855	     -7.92048328	      0.00000000	     -1.22072301	     -2.63716467	     -2.61672619	      2.89155128	      7.23510723	     -6.87084980	      0.00000000	      3.55020075	      0.38685400	      1.58705121	     -6.66262764	     -6.56210748	     -9.44666372	     32.68901632	     92.14195410	     -5.71993557	     -8.25832212	     -0.01979545	     29.64073702	     94.67350392
      2.71666670	     -1.99247944	     -0.38239451	      0.40615524	      0.85979712	      1.14767717	     -0.16409121	     -3.39588737	     -3.81360567	     -8.10479771	      0.52112220	      5.25962779	     -7.89091116	      0.00000000	     -1.30243832	     -2.64760776	     -2.72760621	      2.87592673	      7.19837727	     -6.90553385	      0.00000000	      3.73954462	      0.35086612	      1.47228235	     -6.52698762	     -6.47657950	     -9.43803935	     32.79598599	     92.14580787	     -5.41798008	     -8.20176959	      0.00978212	     29.75145120	     94.67461485
      2.73333330	     -1.93367774	     -0.36221602	      0.13302710	      0.85941575	      1.15070416	     -0.16396507	     -3.38439235	     -3.83494150	     -7.73103402	      0.64373591	      5.46715504	     -7.41082521	      0.00000000	     -1.59609753	     -2.62566354	     -3.37911713	      2.49256292	      6.64495308	     -6.81046852	      0.00000000	      3.70866899	      0.36473711	      1.37935139	     -6.38278842	     -6.29668154	     -9.50550733	     33.50932799	     92.17493482	     -5.29851348	     -8.21291517	      0.28265015	     29.79463832	     94.67894625
      2.75000000	     -1.80959666	     -0.33476132	     -0.12605762	      0.85113235	      1.15020237	     -0.16741614	     -3.31782701	     -3.93906535	     -7.63635176	      0.82630972	      6.02382498	     -6.82530281	      0.00000000	     -1.78356645	     -2.54298543	     -3.80670466	      2.32054365	      6.81008691	     -6.60457681	      0.00000000	      3.26562066	      0.46464013	      1.73025495	     -6.46950861	     -6.31499608	     -9.69326875	     34.58177218	     92.24350686	     -4.64427770	     -8.14077346	      0.72542683	     30.13102820	     94.64220755
      2.76666670	     -1.78254423	     -0.33584192	     -0.08865784	      0.85944287	      1.15119011	     -0.16390241	     -3.34605004	     -3.92760875	     -7.50107292	      0.86777104	      5.99290019	     -6.73655073	      0.00000000	     -1.85329682	     -2.57192068	     -3.82943583	      2.31767943	      6.73845498	     -6.57570532	      0.00000000	      3.37149117	      0.37238604	      1.59480852	     -6.47680390	     -6.26657798	     -9.69919577	     34.61813625	     92.24553683	     -4.42336086	     -8.06078808	      0.75169922	     30.21457050	     94.64144510
      2.78333330	     -1.81078065	     -0.31979348	     -0.16448838	      0.85143904	      1.15043429	     -0.16751514	     -3.26383690	     -4.01061926	     -7.40246207	      0.83365529	      6.03131784	     -6.67272213	      0.00000000	     -1.87721408	     -2.48848301	     -3.88909677	      2.14592433	      6.71577652	     -6.56209433	      0.00000000	      3.43491781	      0.42766525	      1.46213167	     -6.38641413	     -6.22661362	     -9.70467143	     34.69019218	     92.24731916	     -4.08470753	     -8.01062871	      0.76898998	     30.33940857	     94.63975400
      2.80000000	     -1.46933383	     -0.22915034	     -0.37214450	      0.85070665	      1.15077272	     -0.16720348	     -3.40987998	     -4.17521843	     -7.02981398	      1.00586364	      6.46974037	     -6.23934706	      0.00000000	     -2.31973288	     -2.34485130	     -4.46305858	      1.85860776	      6.43404048	     -6.12971991	      0.00000000	      2.48365398	      0.37639611	      1.99970932	     -6.32056966	     -6.23150442	    -10.31407954	     35.79509456	     92.31503129	     -3.31951774	     -7.96793176	      1.31102627	     30.64204580	     94.55559136
